<svg width="129" height="117" viewBox="0 0 129 117" fill="none" xmlns="http://www.w3.org/2000/svg">
<g clip-path="url(#clip0_14_35)">
<path d="M53.2546 115.977C37.4437 114.476 24.4211 110.523 14.7998 104.303C11.8276 102.403 10.9696 101.699 8.08932 98.8183C4.04466 94.8043 1.86913 90.6983 0.275781 84.2636C-0.306404 81.8123 -0.21448 72.0071 0.428988 68.6366C1.89977 60.915 3.21735 56.6865 5.8525 51.0178L6.83303 48.8729L5.82186 44.8895C4.71877 40.5078 4.53493 39.6192 3.83018 34.9617C3.24799 30.9171 3.21735 21.1119 3.79953 17.3123C5.54609 5.82184 9.06984 2.14488 16.6995 3.83016C23.6245 5.36222 32.1428 9.62137 38.9145 14.9836C40.3546 16.1173 41.7029 17.1285 41.8867 17.2511C42.1012 17.4043 43.2962 17.2204 44.4912 16.8834C51.0791 15.0449 55.2463 14.5546 64.0404 14.5853C71.8539 14.5853 73.9069 14.7998 79.0546 16.0254L80.7399 16.4237L84.1105 13.3903C91.5869 6.6798 102.281 0.704742 107.888 0.0919156C113.955 -0.551552 117.387 4.81068 119.379 18.0784C120.206 23.5019 120.114 33.4603 119.195 39.0677C118.827 41.4271 118.459 43.8477 118.367 44.4299C118.245 45.3185 118.521 45.9926 119.991 48.4133C121.922 51.6 124.159 56.2268 125.476 59.7506C128.51 67.8093 129.674 76.6646 128.54 82.609C127.253 89.2888 124.649 93.885 119.317 98.9715C116.621 101.515 111.504 105.038 107.674 107.03C105.651 108.072 99.8907 110.401 96.9798 111.381C84.4782 115.548 67.5335 117.326 53.2546 115.977ZM72.7732 112.729C81.1995 112.055 90.5758 110.125 97.2862 107.704C110.401 102.985 119.317 96.1525 123.178 87.8793C126.487 80.7705 126.426 74.6116 122.964 63.4275C121.432 58.4943 117.418 50.5888 113.802 45.3798C112.025 42.8366 111.81 42.377 111.902 41.2432L111.994 39.9869H113.894H115.763L115.947 38.9145C116.039 38.3323 116.253 35.7278 116.468 33.1233C117.295 21.9698 115.028 9.28431 111.412 4.99453C109.727 2.9722 108.44 3.00284 103.414 5.08645C98.5425 7.13942 92.69 10.9696 86.286 16.3318L85.6425 16.8527L86.3473 17.4043C86.9601 17.8639 87.052 18.2009 86.9601 19.4879C86.8682 20.928 86.8375 20.9893 85.9183 21.0812C85.3668 21.1425 83.3751 20.7442 81.4753 20.2233C73.1102 17.9558 67.1964 17.2511 60.3021 17.7413C53.4385 18.2316 47.3409 19.4266 41.6109 21.4489C38.7613 22.4294 37.1373 22.6133 36.5245 22.0005C35.9423 21.4183 36.0955 19.5798 36.739 18.875C37.3518 18.2316 37.3518 18.2316 34.686 16.3625C28.0368 11.7356 20.7442 8.24251 15.0449 7.01686C11.2454 6.22018 9.16177 8.6102 7.66034 15.6271C6.09763 22.9197 6.28148 30.5188 8.30381 40.2933L8.94728 43.3575L10.6019 43.2655L12.2565 43.143V44.6138C12.2565 45.8701 11.8582 46.9119 9.95844 50.7114C7.29265 56.1043 5.17839 62.1712 4.07531 67.656C3.43184 70.904 3.27863 72.4361 3.27863 76.9097C3.24799 81.6591 3.33991 82.5477 3.95274 84.7233C4.99455 88.2777 5.8525 90.0855 8.08932 93.3028C10.081 96.1525 11.3067 97.3169 15.5658 100.565C21.0812 104.732 31.2542 108.869 40.5998 110.738C52.7644 113.158 61.1601 113.679 72.7732 112.729Z" fill="#24180F"/>
<path d="M62.1713 98.5119C61.3746 98.1135 60.3635 97.3168 59.9039 96.7653C58.9233 95.6009 57.3913 92.5062 57.1155 91.1579C56.9929 90.3919 56.6865 90.1468 55.3689 89.6259C53.4079 88.8598 52.3967 87.5116 52.3967 85.6119C52.3967 84.5394 52.5499 84.1717 53.1628 83.7734C54.3578 82.9767 56.2575 83.3444 57.2687 84.6007C58.3105 85.8263 58.8314 85.7344 61.9875 83.6508C64.0404 82.3332 64.3468 82.0268 64.3468 81.2301C64.3468 80.4641 64.1324 80.219 62.968 79.6674C60.8537 78.6563 60.0571 77.4 60.0571 75.1632C60.0571 73.0489 60.3941 72.5893 62.4777 71.8539C64.2549 71.2411 68.6979 71.2411 70.567 71.8845C72.3442 72.4974 72.9264 73.2634 72.9264 75.01C72.9264 77.0936 72.2523 78.3192 70.4751 79.4223C69.1882 80.219 68.9431 80.5254 69.0043 81.1689C69.0656 81.7817 69.5865 82.2107 71.5476 83.2525C74.9487 85.0603 75.0713 85.0603 77.3388 82.3945C77.9516 81.6591 80.0352 81.5978 80.7093 82.3026C81.506 83.0993 81.3528 85.3974 80.3723 86.8069C79.5756 87.9406 77.7371 89.1663 76.7872 89.1663C76.4808 89.1663 76.2357 89.7484 75.9906 90.9434C75.6535 92.6287 73.9989 96.0912 72.9877 97.2556C72.0378 98.2974 69.6784 99.2779 68.0544 99.2779C67.1352 99.2779 66.4917 99.1247 66.3998 98.9102C66.2773 98.6038 66.1853 98.6038 65.8483 98.9102C65.2354 99.4924 63.734 99.3392 62.1713 98.5119ZM67.5029 94.651C68.4221 94.1608 70.1687 92.5062 70.1687 92.0772C70.1687 91.4031 65.2661 89.4727 63.6115 89.4727C62.0181 89.4727 61.7423 89.8404 62.3552 91.0354C63.2438 92.7819 64.0711 93.7931 65.0822 94.4059C66.1853 95.08 66.5837 95.1107 67.5029 94.651Z" fill="#24180F"/>
<path d="M39.1291 75.6841C37.4744 75.2551 35.207 74.0294 34.2571 73.0183C33.7975 72.5587 33.0621 71.333 32.5718 70.3218C31.8058 68.6979 31.7139 68.1463 31.7139 65.4192C31.7139 62.7841 31.8364 62.1406 32.5105 60.6698C34.4103 56.6252 38.5469 54.4803 43.5108 54.9705C47.0652 55.3382 50.2825 57.4218 51.8452 60.4247C52.7645 62.2325 53.0096 67.2577 52.2436 69.5252C51.5694 71.5475 49.5471 73.7843 47.3716 74.8874C45.9621 75.6228 45.1654 75.776 42.9592 75.8679C41.4885 75.9292 39.7725 75.8373 39.1291 75.6841ZM40.5079 69.9541C41.0288 69.4945 41.0288 69.4332 40.5692 68.8817C39.9257 68.2076 39.7113 68.2076 39.0678 68.8204C38.6082 69.28 38.6082 69.372 39.0984 69.8929C39.7419 70.5976 39.8032 70.5976 40.5079 69.9541ZM46.5443 64.4387C47.9844 63.0905 48.0151 62.3551 46.7894 61.1294C46.2072 60.5473 45.4105 60.057 45.0428 60.057C44.2768 60.057 42.2851 61.8955 42.2851 62.6309C42.2851 63.4275 44.1236 65.266 44.9203 65.266C45.3186 65.266 46.054 64.8983 46.5443 64.4387Z" fill="#24180F"/>
<path d="M83.7122 73.9988C80.5867 73.1408 78.687 71.2411 77.492 67.8399C76.9711 66.3691 76.8791 65.5112 76.9711 63.2743C77.1856 58.8926 78.8095 56.2268 82.3639 54.4803C84.2637 53.5304 84.6008 53.4691 87.481 53.4691C90.1162 53.4998 90.7903 53.5917 92.2304 54.2658C94.4979 55.3076 95.9687 56.6558 97.1943 58.7701C98.1136 60.3634 98.2055 60.7924 98.2974 63.5808C98.4506 67.6561 97.8072 69.4332 95.4478 71.6701C94.5285 72.5587 93.2416 73.4779 92.6288 73.7537C90.9741 74.4584 85.8264 74.581 83.7122 73.9988ZM91.158 67.7173C91.158 67.1658 90.9742 66.9207 90.4533 66.8594C89.7179 66.7368 89.2889 67.4109 89.5953 68.2076C89.6872 68.4834 90.0549 68.6366 90.4533 68.5753C90.9742 68.514 91.158 68.2689 91.158 67.7173ZM85.7651 63.2437C87.2053 62.0487 87.481 61.3746 86.8682 60.486C86.1941 59.4748 84.662 58.5556 83.9266 58.7394C83.13 58.9539 81.8124 60.5779 81.8124 61.3439C81.8124 62.0487 83.6815 64.0404 84.3556 64.0404C84.6314 64.0404 85.2442 63.6727 85.7651 63.2437Z" fill="#24180F"/>
<path d="M26.8112 24.4211C25.1259 22.6439 21.1425 19.6411 18.8751 18.4767C18.3542 18.2009 16.9753 17.68 15.7803 17.3123C13.666 16.6689 13.6354 16.6382 13.5435 15.5045C13.3903 13.7579 13.8805 13.3902 16.0867 13.5741C19.733 13.9112 24.2986 16.4237 29.1093 20.8054L31.5912 23.0729L31.4993 24.6356L31.4074 26.1983L30.0285 26.2902C28.6803 26.3515 28.5884 26.2902 26.8112 24.4211Z" fill="#24180F"/>
<path d="M91.8322 23.9921C91.7096 23.9002 91.6177 23.2568 91.6177 22.5826C91.6177 21.5715 91.8934 21.0199 93.2723 19.3347C95.9075 16.148 99.2167 13.3902 102.649 11.5824C104.364 10.6938 104.579 10.6632 104.824 11.1228C105.161 11.705 106.05 11.4905 105.805 10.847C105.621 10.3261 106.785 10.2648 107.98 10.7244C108.654 10.9696 108.777 11.2147 108.777 12.2259C108.777 13.6967 108.103 14.4014 107.214 13.8499C106.724 13.5435 106.54 13.5741 106.08 14.095C105.805 14.4627 104.671 15.2287 103.598 15.8416C101.545 16.9753 97.7459 20.4377 95.9075 22.7971C94.9269 24.0841 94.7431 24.176 93.4255 24.2066C92.6595 24.2066 91.9241 24.1147 91.8322 23.9921ZM106.509 12.8387C106.601 12.6549 106.571 12.3791 106.448 12.2565C106.08 11.8888 105.284 12.4097 105.529 12.8387C105.805 13.2677 106.234 13.2677 106.509 12.8387Z" fill="#24180F"/>
<path d="M14.2789 38.3629C13.9725 37.842 12.8694 33.1845 12.563 31.1009C12.1646 28.2206 12.1646 21.6328 12.5936 18.9057C13.0532 15.8722 14.0031 14.1563 14.4934 15.4432C14.5853 15.6577 15.3207 16.0254 16.148 16.2092C19.5798 17.0672 24.605 20.2233 27.7304 23.5019C28.7722 24.5743 29.7528 25.4323 29.9672 25.4323C30.6107 25.4323 30.3656 26.3515 29.5076 27.1788C29.0174 27.6078 27.853 28.4964 26.8725 29.1705C25.892 29.8446 24.1454 31.2848 23.0117 32.3572C21.8473 33.4297 20.6829 34.3183 20.4072 34.3183C20.1314 34.3183 19.7943 34.6247 19.6411 35.023C19.4879 35.3907 18.6606 36.3406 17.8026 37.1679C16.6689 38.2097 15.9948 38.6081 15.3513 38.6081C14.8304 38.6081 14.3708 38.4855 14.2789 38.3629Z" fill="#AA774D"/>
<path d="M34.2265 77.9209C33.0008 77.8289 32.7251 77.6757 32.4799 77.0323C32.2654 76.4807 31.53 75.9598 29.8754 75.1938C28.0063 74.3358 27.1177 74.1213 24.7583 73.9681C23.165 73.8456 20.1315 73.3247 17.9253 72.7425C12.9614 71.5168 8.64097 70.9959 5.14785 71.2717C1.96116 71.5168 2.145 71.9458 3.21745 66.5836C4.25926 61.3133 6.37351 55.185 9.0393 49.7921C10.2956 47.2795 11.3374 44.9508 11.3374 44.6444C11.3374 43.8783 10.4182 44.0009 9.43764 44.9508C8.97802 45.3798 8.5184 45.7168 8.45712 45.6249C8.18135 45.3185 6.7412 38.1791 6.31222 34.9311C5.57683 29.2624 5.45427 25.5548 5.82196 21.2957C6.61864 12.1646 8.54904 7.10875 11.5519 6.09759C15.6272 4.74937 26.4436 9.00852 35.8505 15.6577C39.6806 18.3235 39.8338 18.5073 38.6695 19.1202C37.2906 19.8249 36.8923 20.4684 37.4438 21.0199C37.8422 21.4183 38.2099 21.3876 40.6305 20.5297C46.5749 18.4767 52.55 17.3123 59.8733 16.8221C67.5336 16.3012 73.8151 16.9753 82.2414 19.2734C84.0799 19.7636 85.7039 20.1313 85.8571 20.0394C86.5006 19.6411 86.041 18.6605 84.8766 18.0171C84.2025 17.6187 83.6509 17.2204 83.6509 17.1285C83.6509 16.4544 91.1274 10.6019 95.1721 8.08928C103.169 3.12538 108.716 1.44011 111.259 3.15602C115.518 6.00567 118.368 20.1007 117.387 33.5829C117.203 36.4325 116.866 39.6192 116.682 40.661L116.345 42.5608L115.273 41.6415C114.231 40.7223 113.067 40.5384 112.852 41.2432C112.791 41.4577 113.618 42.8978 114.721 44.4605C116.958 47.6779 119.93 52.9788 121.83 57.146C122.964 59.628 123.76 61.9567 125.139 66.7368L125.599 68.3301H123.086C118.49 68.3301 110.002 70.138 106.693 71.8232C106.234 72.0377 105.039 72.3135 104.027 72.4361C102.036 72.6506 99.6457 73.6924 98.3588 74.8874C97.1331 76.0824 95.264 76.4194 90.0856 76.4194L85.3362 76.4501L83.6203 75.4696C82.6704 74.918 80.9545 73.7536 79.7901 72.8957C77.3082 71.0572 75.0714 69.8928 72.3136 69.0042C65.3887 66.7368 59.1685 68.1769 52.7032 73.5698C51.2631 74.7342 49.0569 76.2356 47.8312 76.8484L45.5331 77.9822L40.6305 78.0128C37.9034 78.0434 35.0231 77.9821 34.2265 77.9209ZM46.5136 73.9375C48.6279 72.865 50.6809 70.5976 51.355 68.5753C51.9984 66.6449 51.8146 63.1517 51.0179 61.589C48.9343 57.5444 44.5832 55.2769 40.4467 56.1042C34.2571 57.3299 30.8866 63.7952 33.4911 69.4026C34.5329 71.6394 35.5441 72.7425 37.4438 73.723C40.5386 75.2857 43.6946 75.3776 46.5136 73.9375ZM91.7096 72.8038C93.6094 72.0377 96.122 69.4026 96.8574 67.4415C99.1861 61.252 94.3448 54.4803 87.4811 54.419C80.9545 54.3577 76.2357 60.823 78.4113 66.9206C79.6063 70.3218 81.5061 72.1909 84.6315 73.0795C86.5925 73.6311 90.0856 73.5085 91.7096 72.8038ZM52.6113 54.4803C53.7756 53.4078 53.7756 52.795 52.6113 51.0791C50.7728 48.2601 47.7699 47.3408 45.9315 48.9648C45.1041 49.7002 45.0122 49.976 45.1654 50.742C45.3799 51.7532 47.7087 54.2045 49.1794 55.0012C50.3132 55.5833 51.6614 55.3995 52.6113 54.4803ZM81.0158 53.5917C84.4476 51.2936 84.9379 48.3213 82.0576 47.2183C80.311 46.5748 75.3778 50.1905 75.3778 52.0902C75.3778 52.3966 75.8068 53.0707 76.3277 53.5917C77.6146 54.8786 79.0547 54.8786 81.0158 53.5917ZM18.5381 34.3795C18.293 34.1344 19.0284 33.399 19.5493 33.399C19.7944 33.399 20.9281 32.5104 22.0925 31.438C23.2262 30.3655 24.9728 28.9254 25.9533 28.2513C26.9338 27.5772 28.0982 26.6886 28.5578 26.2596C29.0174 25.8306 29.6303 25.4323 29.9367 25.371C30.2431 25.3097 30.5189 24.9726 30.5802 24.6356C30.764 23.2567 22.7973 16.9753 18.9058 15.4432C16.3013 14.4014 15.1982 14.2482 14.7386 14.8304C14.5241 15.0755 14.4322 15.4432 14.5547 15.5964C14.6467 15.7803 14.5241 16.3012 14.3096 16.7608C13.2678 18.7525 12.8695 25.708 13.4823 30.1817C13.7887 32.2346 14.8918 36.9228 15.1982 37.4437C15.2901 37.5662 16.0868 36.9534 17.006 36.0955C17.9253 35.2375 18.63 34.4408 18.5381 34.3795Z" fill="#E4B163"/>
<path d="M64.1323 95.2945C62.9679 94.5898 61.7729 92.9045 60.9456 90.729L60.3634 89.1662L61.1601 88.8598C62.4164 88.3696 65.3273 88.4921 67.1351 89.1356C69.4026 89.9016 71.3943 90.9434 71.5781 91.4643C71.9152 92.3223 70.1073 94.7123 68.4221 95.5703C67.3803 96.0912 65.2354 95.9686 64.1323 95.2945Z" fill="#EBA494"/>
<path d="M29.8753 75.347C28.8642 74.8567 27.5772 74.3665 27.0563 74.2745C26.3516 74.152 26.0452 73.9068 26.0452 73.5085C26.0452 73.0182 26.229 72.957 27.2402 73.0489C28.619 73.1715 33.1846 75.3163 33.3378 75.9292C33.5217 76.5726 31.8364 76.2969 29.8753 75.347Z" fill="#EBA494"/>
<path d="M99.8907 72.6812C99.8907 72.3442 101.515 71.4249 102.219 71.3943C102.526 71.3943 103.292 71.3636 103.874 71.3024C104.61 71.2717 104.977 71.3943 105.038 71.7007C105.1 72.0684 104.61 72.2522 103.139 72.5586C100.81 72.9876 99.8907 73.0183 99.8907 72.6812Z" fill="#EBA494"/>
<path d="M97.3004 22.2739C98.8718 20.7391 102.586 18.1458 104.7 17.1402C105.186 16.9021 106.472 16.4522 107.586 16.1347C109.558 15.5789 109.586 15.5525 109.672 14.5734C109.815 13.065 109.358 12.7475 107.3 12.9062C103.9 13.1973 99.6432 15.3672 95.1575 19.1514L92.8432 21.1096L92.9289 22.4592L93.0146 23.8088L94.3003 23.8882C95.5575 23.9411 95.6432 23.8882 97.3004 22.2739Z" fill="#24180F"/>
<path d="M108.93 35.8624C109.237 35.3415 110.34 30.684 110.646 28.6004C111.044 25.7201 111.044 19.1322 110.615 16.4051C110.156 13.3717 109.206 11.6557 108.716 12.9427C108.624 13.1572 107.888 13.5249 107.061 13.7087C103.629 14.5667 98.604 17.7227 95.4786 21.0013C94.4367 22.0738 93.4562 22.9317 93.2417 22.9317C92.5983 22.9317 92.8434 23.851 93.7014 24.6783C94.1916 25.1073 95.356 25.9959 96.3365 26.67C97.317 27.3441 99.0636 28.7842 100.197 29.8567C101.362 30.9291 102.526 31.8177 102.802 31.8177C103.078 31.8177 103.415 32.1241 103.568 32.5225C103.721 32.8902 104.548 33.8401 105.406 34.6674C106.54 35.7092 107.214 36.1075 107.858 36.1075C108.379 36.1075 108.838 35.985 108.93 35.8624Z" fill="#AA774D"/>
<path d="M68.8204 90.208C68.1463 89.5339 68.2076 89.3807 69.0349 89.8097C69.9235 90.3 69.9541 90.3 69.5864 90.5145C69.4332 90.6064 69.0655 90.4838 68.8204 90.208Z" fill="#EEB1A5"/>
<path d="M24.6663 82.609C22.8278 82.0268 21.7248 81.3527 20.5297 80.1577C19.6105 79.1772 19.4573 78.8095 19.3654 77.0936C19.2428 75.0406 19.7331 73.5085 20.7749 72.957C21.4796 72.5893 27.3628 73.0489 28.9868 73.6311C31.2236 74.4584 33.3378 75.6534 33.4604 76.205C33.5217 76.542 33.8281 76.7565 34.3183 76.7565C35.0537 76.7565 35.0844 76.8484 35.1763 78.6869C35.3295 82.18 34.1039 83.038 29.048 83.0073C27.3015 83.0073 25.3404 82.8235 24.6663 82.609Z" fill="#EEB1A5"/>
<path d="M97.5927 81.2302C97.2556 81.077 96.6121 80.6173 96.1525 80.1884C95.3865 79.453 95.2946 79.1772 95.2946 77.2468C95.2946 75.2245 95.3558 75.0713 96.0299 74.8874C96.4283 74.7955 97.0718 74.3665 97.4701 73.9682C98.3893 72.9876 101.024 71.7926 102.863 71.5169C105.13 71.2105 105.314 71.1492 105.958 70.8121C106.785 70.3831 109.359 71.1492 110.278 72.1297C111.718 73.6618 111.504 76.8791 109.819 78.7482C108.164 80.5867 105.284 81.5059 101.331 81.4753C99.615 81.4753 97.9297 81.3527 97.5927 81.2302Z" fill="#EEB1A5"/>
<path d="M56.8397 113.955C49.3632 113.587 38.6081 111.78 32.4798 109.849C20.3458 106.05 11.7356 100.718 7.17007 94.2221C4.96389 91.0047 4.07529 89.1969 3.03349 85.6425C2.39002 83.4363 2.32874 82.5784 2.2981 77.0016C2.2981 73.6004 2.42066 70.7202 2.54323 70.567C2.94156 70.1993 11.8275 70.3218 14.095 70.7508C15.1981 70.9653 17.7107 71.5475 19.733 72.0684L23.3793 73.0183L22.2456 73.6005C19.9169 74.7955 19.6411 77.3387 21.6328 79.3917C23.2568 81.0463 25.371 81.8736 28.3739 82.0575C31.2542 82.2107 32.8169 81.8123 33.7055 80.6786C34.3489 79.8206 34.5328 77.8902 34.0425 76.9404C33.7667 76.4195 33.828 76.4195 35.3294 76.8178C36.4325 77.1242 38.1178 77.2161 40.7836 77.1548C44.5218 77.0323 44.7363 77.0016 46.9119 75.9292C48.1682 75.2857 50.3437 73.8149 51.7838 72.6506C58.433 67.1045 65.6031 65.5724 73.2328 68.085C75.9905 68.9736 78.2273 70.138 80.7093 71.9765C81.8736 72.8344 83.5895 73.9988 84.5394 74.5503C86.2553 75.5308 86.286 75.5308 90.2387 75.5002C92.8739 75.4696 94.7123 75.2857 95.6929 74.9793C97.2249 74.489 97.3781 74.581 96.6734 75.5002C95.9074 76.5114 96.0912 78.3499 97.0717 79.2691C98.2361 80.3415 99.0021 80.5867 101.423 80.5867C102.955 80.5867 104.15 80.3722 105.621 79.8206C111.259 77.6757 111.841 72.957 106.601 71.7007C105.008 71.3023 105.008 71.3023 105.805 70.904C107.52 69.9848 112.484 68.5753 115.977 68.0237C120.359 67.2883 125.17 67.1964 125.415 67.8399C125.507 68.0544 125.813 69.6477 126.089 71.3943C126.733 75.1632 126.579 81.5366 125.783 84.4168C123.331 93.2722 116.039 100.718 104.763 105.896C96.5508 109.635 90.7596 111.289 79.9432 112.913C75.6228 113.557 65.2047 114.353 62.5083 114.231C61.9261 114.231 59.3829 114.078 56.8397 113.955ZM70.1074 97.6233C70.904 97.2249 71.762 96.6427 72.0684 96.3363C73.0796 95.1719 74.7342 91.7095 75.0713 90.0242C75.3164 88.8292 75.5615 88.247 75.8679 88.247C77.6451 88.247 80.5254 85.2748 80.1577 83.8347C79.8207 82.4252 78.4112 82.5171 77.6451 84.0185C77.0323 85.1829 75.4389 85.9489 74.1214 85.6731C73.5392 85.5812 71.9765 84.8765 70.6283 84.1717L68.177 82.8541L68.085 81.1689L67.9931 79.5142L69.6171 78.4418C70.8734 77.6145 71.333 77.0629 71.6701 76.113C72.0684 74.9793 72.0684 74.7342 71.6088 74.0601C70.2299 71.9458 63.734 71.7313 61.5278 73.7537C60.1796 74.9487 61.4052 77.5532 63.8565 78.7175C65.2047 79.3917 65.2047 79.4223 65.3273 81.1076L65.4192 82.8235L64.0404 83.8653C63.2743 84.4168 61.8342 85.3054 60.823 85.7957C58.6169 86.8988 57.2993 86.8069 56.3188 85.4586C55.5221 84.3862 54.7254 84.1717 53.8675 84.8458C53.2546 85.3667 53.2546 85.4893 53.6223 86.3779C54.1126 87.5729 55.185 88.4309 56.6865 88.8905C57.6363 89.1969 57.8815 89.4114 58.0347 90.208C58.3104 91.5869 59.8119 94.651 60.823 95.846C62.9066 98.328 67.1045 99.1553 70.1074 97.6233Z" fill="#F9F6EF"/>
<path d="M38.4855 71.0572C36.9841 69.8622 37.8114 67.1045 39.7111 67.1045C40.8449 67.1045 41.9786 68.2382 41.9786 69.4026C41.9786 70.5057 40.8755 71.7007 39.8337 71.7007C39.5273 71.7007 38.9451 71.4249 38.4855 71.0572Z" fill="#F9F6EF"/>
<path d="M88.8599 69.2494C88.5228 68.9123 88.2471 68.2382 88.2471 67.7173C88.2471 67.1964 88.5228 66.5223 88.8599 66.1853C90.1775 64.8677 92.5369 65.8482 92.5369 67.7173C92.5369 68.8817 91.5563 69.8622 90.392 69.8622C89.8711 69.8622 89.197 69.5864 88.8599 69.2494Z" fill="#F9F6EF"/>
<path d="M43.909 66.2772C43.5413 66.2159 42.8059 65.6644 42.285 65.0822C40.5078 63.0292 41.3658 59.9957 43.9703 59.1378C46.9732 58.1572 49.7922 61.4971 48.3214 64.3161C47.586 65.7869 45.625 66.6449 43.909 66.2772Z" fill="#F9F6EF"/>
<path d="M82.1495 64.1629C80.311 62.6308 80.2191 60.1795 81.9656 58.5249C84.1718 56.4719 88.2471 58.2798 88.2471 61.3745C88.2471 62.3551 88.0326 62.784 87.0521 63.7646C86.0103 64.8064 85.6732 64.9596 84.4782 64.9596C83.4364 64.9596 82.8542 64.7757 82.1495 64.1629Z" fill="#F9F6EF"/>
<path d="M48.2295 55.9204C47.7086 55.6446 46.6362 54.7561 45.8089 53.9287C44.4606 52.5499 44.3074 52.2741 44.1849 50.7114C44.0623 49.2406 44.1542 48.9036 44.7364 48.2601C45.7782 47.1264 47.2183 46.7587 48.9955 47.157C51.1404 47.6166 52.5193 48.5359 53.5917 50.2211C54.848 52.1822 54.8787 53.8368 53.653 55.2157C52.9176 56.043 52.5499 56.1962 50.9872 56.2881C49.7616 56.38 48.873 56.2575 48.2295 55.9204Z" fill="#F9F6EF"/>
<path d="M77.063 55.5527C75.9906 55.2463 75.1326 54.5109 74.6117 53.4691C73.6005 51.2936 75.1939 48.5971 78.5644 46.9119C80.2191 46.0539 80.8012 45.9007 81.843 46.0539C84.4169 46.391 85.5813 48.2294 84.8765 50.834C84.5088 52.2128 82.7929 54.1739 81.2302 55.0012C80.1884 55.5221 78.0129 55.8285 77.063 55.5527Z" fill="#F9F6EF"/>
</g>
<defs>
<clipPath id="clip0_14_35">
<rect width="129" height="116.437" fill="white"/>
</clipPath>
</defs>
</svg>
