<svg width="367" height="137" viewBox="0 0 367 137" fill="none" xmlns="http://www.w3.org/2000/svg">
<g clip-path="url(#clip0_19_927)">
<path d="M53.2546 126.259C37.4437 124.757 24.4211 120.805 14.7998 114.585C11.8276 112.685 10.9696 111.98 8.08932 109.1C4.04466 105.086 1.86913 100.98 0.275781 94.5451C-0.306404 92.0938 -0.21448 82.2886 0.428988 78.918C1.89977 71.1964 3.21735 66.9679 5.8525 61.2993L6.83303 59.1544L5.82186 55.171C4.71877 50.7893 4.53493 49.9007 3.83018 45.2432C3.24799 41.1986 3.21735 31.3933 3.79953 27.5938C5.54609 16.1033 9.06984 12.4263 16.6995 14.1116C23.6245 15.6437 32.1428 19.9028 38.9145 25.2651C40.3546 26.3988 41.7029 27.41 41.8867 27.5325C42.1012 27.6857 43.2962 27.5019 44.4912 27.1648C51.0791 25.3263 55.2463 24.8361 64.0404 24.8667C71.8539 24.8667 73.9069 25.0812 79.0546 26.3069L80.7399 26.7052L84.1105 23.6717C91.5869 16.9613 102.281 10.9862 107.888 10.3734C113.955 9.72991 117.387 15.0921 119.379 28.3598C120.206 33.7834 120.114 43.7418 119.195 49.3491C118.827 51.7085 118.459 54.1292 118.367 54.7114C118.245 55.6 118.521 56.2741 119.991 58.6948C121.922 61.8815 124.159 66.5083 125.476 70.032C128.51 78.0907 129.674 86.9461 128.54 92.8905C127.253 99.5703 124.649 104.166 119.317 109.253C116.621 111.796 111.504 115.32 107.674 117.312C105.651 118.353 99.8907 120.682 96.9798 121.663C84.4782 125.83 67.5335 127.607 53.2546 126.259ZM72.7732 123.011C81.1995 122.337 90.5758 120.406 97.2862 117.986C110.401 113.267 119.317 106.434 123.178 98.1608C126.487 91.052 126.426 84.8931 122.964 73.709C121.432 68.7758 117.418 60.8703 113.802 55.6613C112.025 53.118 111.81 52.6584 111.902 51.5247L111.994 50.2684H113.894H115.763L115.947 49.1959C116.039 48.6138 116.253 46.0092 116.468 43.4047C117.295 32.2513 115.028 19.5658 111.412 15.276C109.727 13.2537 108.44 13.2843 103.414 15.3679C98.5425 17.4209 92.69 21.2511 86.286 26.6133L85.6425 27.1342L86.3473 27.6857C86.9601 28.1454 87.052 28.4824 86.9601 29.7693C86.8682 31.2095 86.8375 31.2708 85.9183 31.3627C85.3668 31.424 83.3751 31.0256 81.4753 30.5047C73.1102 28.2373 67.1964 27.5325 60.3021 28.0228C53.4385 28.513 47.3409 29.7081 41.6109 31.7304C38.7613 32.7109 37.1373 32.8948 36.5245 32.2819C35.9423 31.6997 36.0955 29.8613 36.739 29.1565C37.3518 28.513 37.3518 28.513 34.686 26.6439C28.0368 22.0171 20.7442 18.524 15.0449 17.2983C11.2454 16.5016 9.16177 18.8917 7.66034 25.9085C6.09763 33.2012 6.28148 40.8002 8.30381 50.5748L8.94728 53.6389L10.6019 53.547L12.2565 53.4244V54.8952C12.2565 56.1515 11.8582 57.1933 9.95844 60.9929C7.29265 66.3857 5.17839 72.4527 4.07531 77.9375C3.43184 81.1855 3.27863 82.7176 3.27863 87.1912C3.24799 91.9406 3.33991 92.8292 3.95274 95.0047C4.99455 98.5591 5.8525 100.367 8.08932 103.584C10.081 106.434 11.3067 107.598 15.5658 110.846C21.0812 115.014 31.2542 119.15 40.5998 121.019C52.7644 123.44 61.1601 123.961 72.7732 123.011Z" fill="#24180F"/>
<path d="M62.1713 108.793C61.3746 108.395 60.3635 107.598 59.9039 107.047C58.9233 105.882 57.3913 102.788 57.1155 101.439C56.9929 100.673 56.6865 100.428 55.3689 99.9073C53.4079 99.1413 52.3967 97.7931 52.3967 95.8933C52.3967 94.8209 52.5499 94.4532 53.1628 94.0548C54.3578 93.2582 56.2575 93.6259 57.2687 94.8822C58.3105 96.1078 58.8314 96.0159 61.9875 93.9323C64.0404 92.6147 64.3468 92.3083 64.3468 91.5116C64.3468 90.7456 64.1324 90.5004 62.968 89.9489C60.8537 88.9377 60.0571 87.6814 60.0571 85.4446C60.0571 83.3304 60.3941 82.8708 62.4777 82.1354C64.2549 81.5225 68.6979 81.5225 70.567 82.166C72.3442 82.7788 72.9264 83.5449 72.9264 85.2914C72.9264 87.375 72.2523 88.6007 70.4751 89.7038C69.1882 90.5005 68.9431 90.8069 69.0043 91.4503C69.0656 92.0632 69.5865 92.4921 71.5476 93.5339C74.9487 95.3418 75.0713 95.3418 77.3388 92.676C77.9516 91.9406 80.0352 91.8793 80.7093 92.5841C81.506 93.3807 81.3528 95.6788 80.3723 97.0883C79.5756 98.2221 77.7371 99.4477 76.7872 99.4477C76.4808 99.4477 76.2357 100.03 75.9906 101.225C75.6535 102.91 73.9989 106.373 72.9877 107.537C72.0378 108.579 69.6784 109.559 68.0544 109.559C67.1352 109.559 66.4917 109.406 66.3998 109.192C66.2773 108.885 66.1853 108.885 65.8483 109.192C65.2354 109.774 63.734 109.621 62.1713 108.793ZM67.5029 104.933C68.4221 104.442 70.1687 102.788 70.1687 102.359C70.1687 101.685 65.2661 99.7541 63.6115 99.7541C62.0181 99.7541 61.7423 100.122 62.3552 101.317C63.2438 103.063 64.0711 104.075 65.0822 104.687C66.1853 105.361 66.5837 105.392 67.5029 104.933Z" fill="#24180F"/>
<path d="M39.1291 85.9655C37.4744 85.5366 35.207 84.3109 34.2571 83.2997C33.7975 82.8401 33.0621 81.6145 32.5718 80.6033C31.8058 78.9793 31.7139 78.4278 31.7139 75.7007C31.7139 73.0655 31.8364 72.4221 32.5105 70.9513C34.4103 66.9066 38.5469 64.7617 43.5108 65.252C47.0652 65.6197 50.2825 67.7033 51.8452 70.7062C52.7645 72.514 53.0096 77.5392 52.2436 79.8066C51.5694 81.829 49.5471 84.0658 47.3716 85.1689C45.9621 85.9043 45.1654 86.0575 42.9592 86.1494C41.4885 86.2107 39.7725 86.1187 39.1291 85.9655ZM40.5079 80.2356C41.0288 79.776 41.0288 79.7147 40.5692 79.1632C39.9257 78.489 39.7113 78.4891 39.0678 79.1019C38.6082 79.5615 38.6082 79.6534 39.0984 80.1743C39.7419 80.8791 39.8032 80.8791 40.5079 80.2356ZM46.5443 74.7202C47.9844 73.3719 48.0151 72.6366 46.7894 71.4109C46.2072 70.8287 45.4105 70.3385 45.0428 70.3385C44.2768 70.3385 42.2851 72.1769 42.2851 72.9123C42.2851 73.709 44.1236 75.5475 44.9203 75.5475C45.3186 75.5475 46.054 75.1798 46.5443 74.7202Z" fill="#24180F"/>
<path d="M83.7122 84.2803C80.5867 83.4223 78.687 81.5225 77.492 78.1214C76.9711 76.6506 76.8791 75.7926 76.9711 73.5558C77.1856 69.1741 78.8095 66.5083 82.3639 64.7617C84.2637 63.8119 84.6008 63.7506 87.481 63.7506C90.1162 63.7812 90.7903 63.8731 92.2304 64.5473C94.4979 65.5891 95.9687 66.9373 97.1943 69.0515C98.1136 70.6449 98.2055 71.0739 98.2974 73.8622C98.4506 77.9375 97.8072 79.7147 95.4478 81.9515C94.5285 82.8401 93.2416 83.7594 92.6288 84.0351C90.9741 84.7399 85.8264 84.8625 83.7122 84.2803ZM91.158 77.9988C91.158 77.4473 90.9742 77.2021 90.4533 77.1408C89.7179 77.0183 89.2889 77.6924 89.5953 78.4891C89.6872 78.7648 90.0549 78.918 90.4533 78.8568C90.9742 78.7955 91.158 78.5503 91.158 77.9988ZM85.7651 73.5252C87.2053 72.3302 87.481 71.656 86.8682 70.7674C86.1941 69.7563 84.662 68.837 83.9266 69.0209C83.13 69.2354 81.8124 70.8594 81.8124 71.6254C81.8124 72.3302 83.6815 74.3218 84.3556 74.3218C84.6314 74.3218 85.2442 73.9541 85.7651 73.5252Z" fill="#24180F"/>
<path d="M26.8112 34.7026C25.1259 32.9254 21.1425 29.9225 18.8751 28.7582C18.3542 28.4824 16.9753 27.9615 15.7803 27.5938C13.666 26.9503 13.6354 26.9197 13.5435 25.786C13.3903 24.0394 13.8805 23.6717 16.0867 23.8556C19.733 24.1926 24.2986 26.7052 29.1093 31.0869L31.5912 33.3544L31.4993 34.9171L31.4074 36.4798L30.0285 36.5717C28.6803 36.633 28.5884 36.5717 26.8112 34.7026Z" fill="#24180F"/>
<path d="M91.8322 34.2736C91.7096 34.1817 91.6177 33.5382 91.6177 32.8641C91.6177 31.8529 91.8934 31.3014 93.2723 29.6161C95.9075 26.4294 99.2167 23.6717 102.649 21.8639C104.364 20.9753 104.579 20.9446 104.824 21.4043C105.161 21.9864 106.05 21.7719 105.805 21.1285C105.621 20.6076 106.785 20.5463 107.98 21.0059C108.654 21.251 108.777 21.4962 108.777 22.5073C108.777 23.9781 108.103 24.6829 107.214 24.1313C106.724 23.8249 106.54 23.8556 106.08 24.3765C105.805 24.7442 104.671 25.5102 103.598 26.123C101.545 27.2567 97.7459 30.7192 95.9075 33.0786C94.9269 34.3655 94.7431 34.4575 93.4255 34.4881C92.6595 34.4881 91.9241 34.3962 91.8322 34.2736ZM106.509 23.1202C106.601 22.9363 106.571 22.6605 106.448 22.538C106.08 22.1703 105.284 22.6912 105.529 23.1202C105.805 23.5491 106.234 23.5491 106.509 23.1202Z" fill="#24180F"/>
<path d="M14.2789 48.6444C13.9725 48.1235 12.8694 43.466 12.563 41.3824C12.1646 38.5021 12.1646 31.9142 12.5936 29.1871C13.0532 26.1536 14.0031 24.4377 14.4934 25.7247C14.5853 25.9392 15.3207 26.3069 16.148 26.4907C19.5798 27.3487 24.605 30.5047 27.7304 33.7833C28.7722 34.8558 29.7528 35.7137 29.9672 35.7137C30.6107 35.7137 30.3656 36.633 29.5076 37.4603C29.0174 37.8893 27.853 38.7779 26.8725 39.452C25.892 40.1261 24.1454 41.5662 23.0117 42.6387C21.8473 43.7111 20.6829 44.5997 20.4072 44.5997C20.1314 44.5997 19.7943 44.9061 19.6411 45.3045C19.4879 45.6722 18.6606 46.6221 17.8026 47.4494C16.6689 48.4912 15.9948 48.8895 15.3513 48.8895C14.8304 48.8895 14.3708 48.7669 14.2789 48.6444Z" fill="#AA774D"/>
<path d="M34.2265 88.2023C33.0008 88.1104 32.7251 87.9572 32.4799 87.3137C32.2654 86.7622 31.53 86.2413 29.8754 85.4753C28.0063 84.6173 27.1177 84.4028 24.7583 84.2496C23.165 84.127 20.1315 83.6061 17.9253 83.0239C12.9614 81.7983 8.64097 81.2774 5.14785 81.5532C1.96116 81.7983 2.145 82.2273 3.21745 76.865C4.25926 71.5947 6.37351 65.4665 9.0393 60.0736C10.2956 57.561 11.3374 55.2323 11.3374 54.9258C11.3374 54.1598 10.4182 54.2824 9.43764 55.2323C8.97802 55.6612 8.5184 55.9983 8.45712 55.9064C8.18135 55.6 6.7412 48.4605 6.31222 45.2125C5.57683 39.5439 5.45427 35.8363 5.82196 31.5772C6.61864 22.446 8.54904 17.3902 11.5519 16.3791C15.6272 15.0308 26.4436 19.29 35.8505 25.9391C39.6806 28.6049 39.8338 28.7888 38.6695 29.4016C37.2906 30.1064 36.8923 30.7498 37.4438 31.3014C37.8422 31.6997 38.2099 31.6691 40.6305 30.8111C46.5749 28.7582 52.55 27.5938 59.8733 27.1035C67.5336 26.5826 73.8151 27.2567 82.2414 29.5548C84.0799 30.0451 85.7039 30.4128 85.8571 30.3209C86.5006 29.9225 86.041 28.942 84.8766 28.2985C84.2025 27.9002 83.6509 27.5019 83.6509 27.4099C83.6509 26.7358 91.1274 20.8833 95.1721 18.3707C103.169 13.4068 108.716 11.7216 111.259 13.4375C115.518 16.2871 118.368 30.3821 117.387 43.8643C117.203 46.714 116.866 49.9007 116.682 50.9425L116.345 52.8422L115.273 51.923C114.231 51.0038 113.067 50.8199 112.852 51.5247C112.791 51.7392 113.618 53.1793 114.721 54.742C116.958 57.9593 119.93 63.2603 121.83 67.4275C122.964 69.9095 123.76 72.2382 125.139 77.0182L125.599 78.6116H123.086C118.49 78.6116 110.002 80.4194 106.693 82.1047C106.234 82.3192 105.039 82.595 104.027 82.7175C102.036 82.932 99.6457 83.9738 98.3588 85.1688C97.1331 86.3639 95.264 86.7009 90.0856 86.7009L85.3362 86.7316L83.6203 85.751C82.6704 85.1995 80.9545 84.0351 79.7901 83.1772C77.3082 81.3387 75.0714 80.1743 72.3136 79.2857C65.3887 77.0183 59.1685 78.4584 52.7032 83.8513C51.2631 85.0156 49.0569 86.5171 47.8312 87.1299L45.5331 88.2636L40.6305 88.2943C37.9034 88.3249 35.0231 88.2636 34.2265 88.2023ZM46.5136 84.219C48.6279 83.1465 50.6809 80.8791 51.355 78.8567C51.9984 76.9263 51.8146 73.4332 51.0179 71.8705C48.9343 67.8258 44.5832 65.5584 40.4467 66.3857C34.2571 67.6114 30.8866 74.0767 33.4911 79.684C34.5329 81.9209 35.5441 83.024 37.4438 84.0045C40.5386 85.5672 43.6946 85.6591 46.5136 84.219ZM91.7096 83.0852C93.6094 82.3192 96.122 79.684 96.8574 77.723C99.1861 71.5335 94.3448 64.7617 87.4811 64.7004C80.9545 64.6392 76.2357 71.1045 78.4113 77.2021C79.6063 80.6033 81.5061 82.4724 84.6315 83.361C86.5925 83.9125 90.0856 83.79 91.7096 83.0852ZM52.6113 64.7617C53.7756 63.6893 53.7756 63.0764 52.6113 61.3605C50.7728 58.5415 47.7699 57.6223 45.9315 59.2463C45.1041 59.9817 45.0122 60.2574 45.1654 61.0235C45.3799 62.0346 47.7087 64.4859 49.1794 65.2826C50.3132 65.8648 51.6614 65.681 52.6113 64.7617ZM81.0158 63.8731C84.4476 61.575 84.9379 58.6028 82.0576 57.4997C80.311 56.8563 75.3778 60.4719 75.3778 62.3717C75.3778 62.6781 75.8068 63.3522 76.3277 63.8731C77.6146 65.1601 79.0547 65.1601 81.0158 63.8731ZM18.5381 44.661C18.293 44.4159 19.0284 43.6805 19.5493 43.6805C19.7944 43.6805 20.9281 42.7919 22.0925 41.7194C23.2262 40.647 24.9728 39.2068 25.9533 38.5327C26.9338 37.8586 28.0982 36.97 28.5578 36.541C29.0174 36.1121 29.6303 35.7137 29.9367 35.6525C30.2431 35.5912 30.5189 35.2541 30.5802 34.9171C30.764 33.5382 22.7973 27.2567 18.9058 25.7247C16.3013 24.6829 15.1982 24.5296 14.7386 25.1118C14.5241 25.357 14.4322 25.7247 14.5547 25.8779C14.6467 26.0617 14.5241 26.5826 14.3096 27.0422C13.2678 29.0339 12.8695 35.9895 13.4823 40.4631C13.7887 42.5161 14.8918 47.2042 15.1982 47.7251C15.2901 47.8477 16.0868 47.2349 17.006 46.3769C17.9253 45.519 18.63 44.7223 18.5381 44.661Z" fill="#E4B163"/>
<path d="M64.1323 105.576C62.9679 104.871 61.7729 103.186 60.9456 101.01L60.3634 99.4477L61.1601 99.1413C62.4164 98.651 65.3273 98.7736 67.1351 99.4171C69.4026 100.183 71.3943 101.225 71.5781 101.746C71.9152 102.604 70.1073 104.994 68.4221 105.852C67.3803 106.373 65.2354 106.25 64.1323 105.576Z" fill="#EBA494"/>
<path d="M29.8753 85.6285C28.8642 85.1382 27.5772 84.6479 27.0563 84.556C26.3516 84.4334 26.0452 84.1883 26.0452 83.79C26.0452 83.2997 26.229 83.2384 27.2402 83.3304C28.619 83.4529 33.1846 85.5978 33.3378 86.2106C33.5217 86.8541 31.8364 86.5783 29.8753 85.6285Z" fill="#EBA494"/>
<path d="M99.8907 82.9627C99.8907 82.6256 101.515 81.7064 102.219 81.6757C102.526 81.6757 103.292 81.6451 103.874 81.5838C104.61 81.5532 104.977 81.6757 105.038 81.9822C105.1 82.3498 104.61 82.5337 103.139 82.8401C100.81 83.2691 99.8907 83.2997 99.8907 82.9627Z" fill="#EBA494"/>
<path d="M97.3004 32.5554C98.8718 31.0206 102.586 28.4273 104.7 27.4217C105.186 27.1835 106.472 26.7337 107.586 26.4161C109.558 25.8604 109.586 25.8339 109.672 24.8548C109.815 23.3465 109.358 23.0289 107.3 23.1877C103.9 23.4788 99.6432 25.6487 95.1575 29.4328L92.8432 31.3911L92.9289 32.7406L93.0146 34.0902L94.3003 34.1696C95.5575 34.2225 95.6432 34.1696 97.3004 32.5554Z" fill="#24180F"/>
<path d="M108.93 46.1438C109.237 45.6229 110.34 40.9655 110.646 38.8819C111.044 36.0016 111.044 29.4137 110.615 26.6866C110.156 23.6531 109.206 21.9372 108.716 23.2241C108.624 23.4386 107.888 23.8063 107.061 23.9902C103.629 24.8481 98.604 28.0042 95.4786 31.2828C94.4367 32.3553 93.4562 33.2132 93.2417 33.2132C92.5983 33.2132 92.8434 34.1324 93.7014 34.9598C94.1916 35.3887 95.356 36.2773 96.3365 36.9515C97.317 37.6256 99.0636 39.0657 100.197 40.1382C101.362 41.2106 102.526 42.0992 102.802 42.0992C103.078 42.0992 103.415 42.4056 103.568 42.8039C103.721 43.1716 104.548 44.1215 105.406 44.9488C106.54 45.9906 107.214 46.389 107.858 46.389C108.379 46.389 108.838 46.2664 108.93 46.1438Z" fill="#AA774D"/>
<path d="M68.8204 100.49C68.1463 99.8154 68.2076 99.6622 69.0349 100.091C69.9235 100.581 69.9541 100.581 69.5864 100.796C69.4332 100.888 69.0655 100.765 68.8204 100.49Z" fill="#EEB1A5"/>
<path d="M24.6663 92.8905C22.8278 92.3083 21.7248 91.6342 20.5297 90.4392C19.6105 89.4586 19.4573 89.0909 19.3654 87.375C19.2428 85.3221 19.7331 83.79 20.7749 83.2384C21.4796 82.8708 27.3628 83.3304 28.9868 83.9126C31.2236 84.7399 33.3378 85.9349 33.4604 86.4864C33.5217 86.8235 33.8281 87.038 34.3183 87.038C35.0537 87.038 35.0844 87.1299 35.1763 88.9684C35.3295 92.4615 34.1039 93.3194 29.048 93.2888C27.3015 93.2888 25.3404 93.105 24.6663 92.8905Z" fill="#EEB1A5"/>
<path d="M97.5927 91.5116C97.2556 91.3584 96.6121 90.8988 96.1525 90.4698C95.3865 89.7344 95.2946 89.4587 95.2946 87.5283C95.2946 85.5059 95.3558 85.3527 96.0299 85.1689C96.4283 85.077 97.0718 84.648 97.4701 84.2496C98.3893 83.2691 101.024 82.0741 102.863 81.7983C105.13 81.4919 105.314 81.4306 105.958 81.0936C106.785 80.6646 109.359 81.4306 110.278 82.4112C111.718 83.9432 111.504 87.1606 109.819 89.0297C108.164 90.8682 105.284 91.7874 101.331 91.7568C99.615 91.7568 97.9297 91.6342 97.5927 91.5116Z" fill="#EEB1A5"/>
<path d="M56.8397 124.237C49.3632 123.869 38.6081 122.061 32.4798 120.131C20.3458 116.331 11.7356 110.999 7.17007 104.504C4.96389 101.286 4.07529 99.4783 3.03349 95.924C2.39002 93.7178 2.32874 92.8598 2.2981 87.2831C2.2981 83.8819 2.42066 81.0016 2.54323 80.8484C2.94156 80.4807 11.8275 80.6033 14.095 81.0323C15.1981 81.2468 17.7107 81.8289 19.733 82.3498L23.3793 83.2997L22.2456 83.8819C19.9169 85.0769 19.6411 87.6202 21.6328 89.6731C23.2568 91.3278 25.371 92.1551 28.3739 92.3389C31.2542 92.4921 32.8169 92.0938 33.7055 90.9601C34.3489 90.1021 34.5328 88.1717 34.0425 87.2218C33.7667 86.7009 33.828 86.7009 35.3294 87.0993C36.4325 87.4057 38.1178 87.4976 40.7836 87.4363C44.5218 87.3137 44.7363 87.2831 46.9119 86.2106C48.1682 85.5672 50.3437 84.0964 51.7838 82.932C58.433 77.3859 65.6031 75.8539 73.2328 78.3665C75.9905 79.2551 78.2273 80.4194 80.7093 82.2579C81.8736 83.1159 83.5895 84.2802 84.5394 84.8318C86.2553 85.8123 86.286 85.8123 90.2387 85.7817C92.8739 85.751 94.7123 85.5672 95.6929 85.2608C97.2249 84.7705 97.3781 84.8624 96.6734 85.7817C95.9074 86.7928 96.0912 88.6313 97.0717 89.5506C98.2361 90.623 99.0021 90.8681 101.423 90.8681C102.955 90.8681 104.15 90.6536 105.621 90.1021C111.259 87.9572 111.841 83.2384 106.601 81.9821C105.008 81.5838 105.008 81.5838 105.805 81.1855C107.52 80.2662 112.484 78.8567 115.977 78.3052C120.359 77.5698 125.17 77.4779 125.415 78.1213C125.507 78.3358 125.813 79.9292 126.089 81.6757C126.733 85.4446 126.579 91.818 125.783 94.6983C123.331 103.554 116.039 110.999 104.763 116.178C96.5508 119.916 90.7596 121.571 79.9432 123.195C75.6228 123.838 65.2047 124.635 62.5083 124.512C61.9261 124.512 59.3829 124.359 56.8397 124.237ZM70.1074 107.905C70.904 107.506 71.762 106.924 72.0684 106.618C73.0796 105.453 74.7342 101.991 75.0713 100.306C75.3164 99.1106 75.5615 98.5285 75.8679 98.5285C77.6451 98.5285 80.5254 95.5563 80.1577 94.1161C79.8207 92.7066 78.4112 92.7985 77.6451 94.3C77.0323 95.4643 75.4389 96.2304 74.1214 95.9546C73.5392 95.8627 71.9765 95.1579 70.6283 94.4532L68.177 93.1356L68.085 91.4503L67.9931 89.7957L69.6171 88.7232C70.8734 87.8959 71.333 87.3444 71.6701 86.3945C72.0684 85.2608 72.0684 85.0156 71.6088 84.3415C70.2299 82.2273 63.734 82.0128 61.5278 84.0351C60.1796 85.2301 61.4052 87.8346 63.8565 88.999C65.2047 89.6731 65.2047 89.7038 65.3273 91.389L65.4192 93.1049L64.0404 94.1468C63.2743 94.6983 61.8342 95.5869 60.823 96.0772C58.6169 97.1802 57.2993 97.0883 56.3188 95.7401C55.5221 94.6677 54.7254 94.4532 53.8675 95.1273C53.2546 95.6482 53.2546 95.7707 53.6223 96.6593C54.1126 97.8544 55.185 98.7123 56.6865 99.1719C57.6363 99.4783 57.8815 99.6928 58.0347 100.49C58.3104 101.868 59.8119 104.933 60.823 106.128C62.9066 108.609 67.1045 109.437 70.1074 107.905Z" fill="#F9F6EF"/>
<path d="M38.4855 81.3387C36.9841 80.1437 37.8114 77.386 39.7111 77.386C40.8449 77.386 41.9786 78.5197 41.9786 79.6841C41.9786 80.7871 40.8755 81.9822 39.8337 81.9822C39.5273 81.9822 38.9451 81.7064 38.4855 81.3387Z" fill="#F9F6EF"/>
<path d="M88.8599 79.5309C88.5228 79.1938 88.2471 78.5197 88.2471 77.9988C88.2471 77.4779 88.5228 76.8038 88.8599 76.4667C90.1775 75.1491 92.5369 76.1297 92.5369 77.9988C92.5369 79.1632 91.5563 80.1437 90.392 80.1437C89.8711 80.1437 89.197 79.8679 88.8599 79.5309Z" fill="#F9F6EF"/>
<path d="M43.909 76.5587C43.5413 76.4974 42.8059 75.9458 42.285 75.3636C40.5078 73.3107 41.3658 70.2772 43.9703 69.4192C46.9732 68.4387 49.7922 71.7786 48.3214 74.5976C47.586 76.0684 45.625 76.9263 43.909 76.5587Z" fill="#F9F6EF"/>
<path d="M82.1495 74.4444C80.311 72.9123 80.2191 70.461 81.9656 68.8064C84.1718 66.7534 88.2471 68.5612 88.2471 71.656C88.2471 72.6365 88.0326 73.0655 87.0521 74.046C86.0103 75.0878 85.6732 75.241 84.4782 75.241C83.4364 75.241 82.8542 75.0572 82.1495 74.4444Z" fill="#F9F6EF"/>
<path d="M48.2295 66.2019C47.7086 65.9261 46.6362 65.0375 45.8089 64.2102C44.4606 62.8313 44.3074 62.5556 44.1849 60.9929C44.0623 59.5221 44.1542 59.185 44.7364 58.5416C45.7782 57.4078 47.2183 57.0401 48.9955 57.4385C51.1404 57.8981 52.5193 58.8173 53.5917 60.5026C54.848 62.4636 54.8787 64.1183 53.653 65.4971C52.9176 66.3244 52.5499 66.4777 50.9872 66.5696C49.7616 66.6615 48.873 66.5389 48.2295 66.2019Z" fill="#F9F6EF"/>
<path d="M77.063 65.8342C75.9906 65.5278 75.1326 64.7924 74.6117 63.7506C73.6005 61.575 75.1939 58.8786 78.5644 57.1933C80.2191 56.3354 80.8012 56.1822 81.843 56.3354C84.4169 56.6724 85.5813 58.5109 84.8765 61.1154C84.5088 62.4943 82.7929 64.4553 81.2302 65.2826C80.1884 65.8035 78.0129 66.11 77.063 65.8342Z" fill="#F9F6EF"/>
</g>
<path d="M164.441 101.903C161.967 101.903 160.061 101.234 158.723 99.8967C157.453 98.5593 156.818 96.6535 156.818 94.1793V37.1064C156.818 34.5654 157.453 32.6596 158.723 31.3891C160.061 30.0517 161.967 29.383 164.441 29.383C166.848 29.383 168.687 30.0517 169.957 31.3891C171.295 32.6596 171.964 34.5654 171.964 37.1064V60.9787H170.559C172.097 57.7021 174.371 55.1945 177.38 53.4559C180.456 51.6505 183.933 50.7477 187.812 50.7477C191.757 50.7477 195 51.5167 197.541 53.0547C200.082 54.5259 201.988 56.7994 203.258 59.8754C204.529 62.8845 205.164 66.7295 205.164 71.4103V94.1793C205.164 96.6535 204.495 98.5593 203.158 99.8967C201.888 101.234 200.015 101.903 197.541 101.903C195.134 101.903 193.261 101.234 191.924 99.8967C190.653 98.5593 190.018 96.6535 190.018 94.1793V72.1125C190.018 68.7021 189.383 66.2614 188.112 64.7903C186.909 63.2523 185.036 62.4833 182.495 62.4833C179.286 62.4833 176.711 63.4863 174.772 65.4924C172.9 67.4985 171.964 70.1733 171.964 73.5167V94.1793C171.964 99.3283 169.456 101.903 164.441 101.903ZM233.121 102.103C229.511 102.103 226.267 101.401 223.392 99.997C220.517 98.5927 218.276 96.6869 216.672 94.2796C215.067 91.8723 214.264 89.1641 214.264 86.155C214.264 82.5441 215.201 79.7021 217.073 77.6292C218.945 75.4894 221.988 73.9848 226.201 73.1155C230.413 72.1793 235.997 71.7113 242.951 71.7113H248.267V79.535H243.052C239.641 79.535 236.866 79.7356 234.726 80.1368C232.653 80.4711 231.149 81.073 230.213 81.9423C229.343 82.8116 228.909 84.0152 228.909 85.5532C228.909 87.4255 229.544 88.9635 230.814 90.1672C232.152 91.3708 234.058 91.9726 236.532 91.9726C238.471 91.9726 240.176 91.538 241.647 90.6687C243.185 89.7325 244.389 88.4954 245.258 86.9575C246.128 85.3526 246.562 83.5471 246.562 81.541V70.0061C246.562 67.0638 245.894 64.9909 244.556 63.7872C243.219 62.5167 240.945 61.8815 237.735 61.8815C235.93 61.8815 233.957 62.1155 231.818 62.5836C229.745 62.9848 227.438 63.6869 224.897 64.69C223.425 65.3587 222.121 65.5258 220.985 65.1915C219.848 64.7903 218.979 64.1216 218.377 63.1854C217.775 62.1824 217.474 61.1125 217.474 59.9757C217.474 58.7721 217.808 57.6353 218.477 56.5654C219.146 55.4286 220.249 54.5927 221.787 54.0578C224.93 52.7873 227.872 51.918 230.614 51.4499C233.422 50.9818 235.997 50.7477 238.337 50.7477C243.486 50.7477 247.699 51.5167 250.976 53.0547C254.319 54.5259 256.827 56.8328 258.498 59.9757C260.17 63.0517 261.006 67.0304 261.006 71.9119V94.1793C261.006 96.6535 260.404 98.5593 259.2 99.8967C257.997 101.234 256.258 101.903 253.985 101.903C251.711 101.903 249.939 101.234 248.669 99.8967C247.465 98.5593 246.863 96.6535 246.863 94.1793V90.4681L247.565 91.0699C247.164 93.3435 246.295 95.3161 244.957 96.9878C243.687 98.5927 242.049 99.8632 240.042 100.799C238.036 101.669 235.729 102.103 233.121 102.103ZM280.128 101.903C277.587 101.903 275.648 101.234 274.31 99.8967C272.973 98.5593 272.304 96.6535 272.304 94.1793V58.5714C272.304 56.0973 272.94 54.2249 274.21 52.9544C275.547 51.617 277.386 50.9483 279.727 50.9483C282.134 50.9483 283.973 51.617 285.243 52.9544C286.514 54.2249 287.149 56.0973 287.149 58.5714V63.7872H286.146C286.949 59.7751 288.721 56.6657 291.462 54.459C294.204 52.2523 297.748 51.0152 302.095 50.7477C303.766 50.614 305.037 51.0487 305.906 52.0517C306.842 52.9879 307.344 54.5593 307.411 56.766C307.544 58.8389 307.11 60.4772 306.107 61.6809C305.171 62.8845 303.566 63.6201 301.292 63.8876L298.985 64.0882C295.174 64.4225 292.332 65.5259 290.459 67.3982C288.654 69.2705 287.751 71.9787 287.751 75.5228V94.1793C287.751 96.6535 287.082 98.5593 285.745 99.8967C284.474 101.234 282.602 101.903 280.128 101.903ZM331.795 102.103C327.65 102.103 324.206 101.334 321.464 99.7964C318.723 98.2584 316.683 95.9514 315.346 92.8754C314.075 89.7325 313.44 85.8541 313.44 81.2401V58.5714C313.44 56.0304 314.075 54.1246 315.346 52.8541C316.683 51.5836 318.555 50.9483 320.963 50.9483C323.37 50.9483 325.242 51.5836 326.58 52.8541C327.917 54.1246 328.586 56.0304 328.586 58.5714V81.6413C328.586 84.5836 329.188 86.7903 330.391 88.2614C331.595 89.6657 333.501 90.3678 336.109 90.3678C338.984 90.3678 341.324 89.3647 343.13 87.3587C345.002 85.2857 345.938 82.5775 345.938 79.2341V58.5714C345.938 56.0304 346.574 54.1246 347.844 52.8541C349.181 51.5836 351.054 50.9483 353.461 50.9483C355.935 50.9483 357.808 51.5836 359.078 52.8541C360.416 54.1246 361.084 56.0304 361.084 58.5714V94.1793C361.084 99.3283 358.643 101.903 353.762 101.903C351.355 101.903 349.516 101.234 348.245 99.8967C346.975 98.5593 346.34 96.6535 346.34 94.1793V87.459L347.844 91.3708C346.373 94.7812 344.267 97.4225 341.525 99.2948C338.783 101.167 335.54 102.103 331.795 102.103Z" fill="#1A1A18"/>
<defs>
<clipPath id="clip0_19_927">
<rect width="129" height="116.437" fill="white" transform="translate(0 10.2815)"/>
</clipPath>
</defs>
</svg>
