<svg width="372" height="416" viewBox="0 0 372 416" fill="none" xmlns="http://www.w3.org/2000/svg">
<path d="M91.3694 360.242L61.8694 344.242L49.501 394.242L84.001 415.742L91.3694 360.242Z" fill="#F19848"/>
<path d="M309.869 6.24229C326.369 4.74229 331.369 5.24229 333.369 10.7423C335.37 16.2428 362.369 52.7432 345.869 156.742L343.369 168.742C349.536 180.242 361.869 204.742 361.869 210.742C353.536 205.576 330.569 198.342 305.369 210.742C273.869 226.242 276.869 239.242 252.869 239.242C228.869 239.242 224.869 207.742 188.369 207.742C151.869 207.742 147.869 239.242 123.869 239.242C99.8694 239.242 102.869 226.242 71.3691 210.742C46.1692 198.342 23.2025 205.576 14.8691 210.742C14.8691 204.742 27.2024 180.242 33.3691 168.742L30.8691 156.742C14.3694 52.7442 41.3682 16.2433 43.3691 10.7423C45.3691 5.24232 50.3693 4.74232 66.8691 6.24229C80.0691 7.44229 125.369 54.0756 146.369 77.2423L188.369 79.2423L230.369 77.2423C251.369 54.0758 296.669 7.4429 309.869 6.24229Z" fill="#F19848"/>
<path d="M64.8695 29.2421C75.2695 28.0421 100.869 69.4088 112.369 90.2421L51.8695 144.242C43.8695 109.242 51.8695 30.7421 64.8695 29.2421Z" fill="white"/>
<path d="M308.869 29.2421C298.469 28.0421 272.869 69.4088 261.369 90.2421L321.869 144.242C329.869 109.242 321.869 30.7421 308.869 29.2421Z" fill="white"/>
<path d="M50.3955 8.7078C58.0228 6.20942 66.7969 8.8504 75.1241 13.2918C83.6521 17.8404 92.7666 24.8455 101.625 32.783C118.459 47.8668 134.97 66.8678 145.678 80.5672C150.448 79.8572 156.692 79.621 163.009 79.6726C170.799 79.7363 179.127 80.2437 185.796 81.0125C192.465 80.2437 200.793 79.7363 208.584 79.6726C214.901 79.621 221.145 79.8571 225.915 80.5672C236.623 66.8677 253.134 47.8669 269.968 32.783C278.826 24.8454 287.941 17.8404 296.469 13.2918C304.796 8.85033 313.57 6.2092 321.197 8.7078C326.041 10.2945 329.981 13.8379 333.17 18.285C336.368 22.7448 339.021 28.4029 341.222 34.7732C345.624 47.5177 348.451 63.815 349.905 80.9158C352.804 115.006 350.342 153.578 343.065 175.408C342.279 177.765 339.731 179.04 337.373 178.254C335.015 177.468 333.742 174.919 334.527 172.561C341.251 152.391 343.789 115.213 340.938 81.6785C339.517 64.9671 336.781 49.4827 332.715 37.7117C330.681 31.8243 328.373 27.04 325.855 23.5291C323.329 20.006 320.802 18.0488 318.396 17.2605C314.423 15.9591 308.521 17.0642 300.704 21.2332C293.089 25.295 284.591 31.7656 275.975 39.4861C258.77 54.9025 241.756 74.7007 231.364 88.2264C230.294 89.619 228.512 90.2621 226.799 89.8728C222.947 88.9973 216.273 88.6095 208.658 88.6717C201.155 88.733 193.14 89.2247 186.812 89.9549C186.467 89.9946 186.127 89.9926 185.796 89.9558C185.465 89.9925 185.126 89.9945 184.781 89.9549C178.453 89.2247 170.438 88.733 162.935 88.6717C155.32 88.6095 148.646 88.9974 144.794 89.8728C143.081 90.2621 141.299 89.6188 140.229 88.2264C129.837 74.7008 112.823 54.9025 95.6182 39.4861C87.0021 31.7658 78.504 25.295 70.8887 21.2332C63.0726 17.0644 57.17 15.9593 53.1973 17.2605C50.7911 18.0488 48.2634 20.006 45.7373 23.5291C43.2201 27.04 40.9117 31.8243 38.878 37.7117C34.8118 49.4828 32.0762 64.967 30.6553 81.6785C27.804 115.213 30.3422 152.391 37.0655 172.561C37.8512 174.919 36.5771 177.468 34.2198 178.254C31.8622 179.04 29.3135 177.765 28.5274 175.408C21.2507 153.578 18.7889 115.006 21.6875 80.9158C23.1416 63.8149 25.9687 47.5178 30.3711 34.7732C32.5717 28.4029 35.2253 22.7448 38.4229 18.285C41.6114 13.838 45.5521 10.2945 50.3955 8.7078Z" fill="#F1BD80"/>
<path d="M84.3343 53.0243C86.3876 51.6243 89.1871 52.1537 90.5872 54.2069L113.087 87.2069C114.44 89.1908 113.997 91.8874 112.08 93.3339L85.5803 113.334C83.5967 114.831 80.7748 114.437 79.2776 112.453C77.7805 110.469 78.1748 107.647 80.1585 106.15L98.7893 92.0878L77.9319 87.6434C75.5014 87.1254 73.9503 84.7351 74.468 82.3046C74.986 79.874 77.3764 78.323 79.8069 78.8407L99.3264 82.9999L83.1516 59.2772C81.7516 57.2239 82.281 54.4244 84.3343 53.0243Z" fill="#1A1A18"/>
<path d="M280.369 360.242L309.869 344.242L322.501 393.242L288.001 414.742L280.369 360.242Z" fill="#F19848"/>
<path d="M296.542 5.54971C304.869 1.10828 313.643 -1.53287 321.27 0.965728C326.114 2.55248 330.055 6.09589 333.243 10.5429C336.441 15.0026 339.094 20.661 341.295 27.0312C345.697 39.7756 348.524 56.0731 349.978 73.1737C352.852 106.966 350.456 145.162 343.326 167.09C354.655 187.355 367.443 217.154 371.342 252.245C373.365 270.451 367.459 287.236 357.865 301.957C348.289 316.651 334.897 329.516 321.465 340.091C320.576 340.791 319.685 341.481 318.795 342.162L329.262 389.266C329.801 391.692 328.271 394.096 325.845 394.635C323.419 395.173 321.015 393.644 320.475 391.219L310.928 348.25C309.544 349.139 308.026 350.088 306.428 351.067C298.236 356.628 290.489 361.271 284.063 364.877C278.917 367.765 274.603 369.997 271.567 371.511C270.049 372.267 268.849 372.845 268.023 373.236C267.611 373.432 267.291 373.581 267.072 373.683C266.963 373.733 266.878 373.772 266.819 373.799C266.79 373.812 266.767 373.823 266.751 373.83C266.743 373.834 266.736 373.837 266.731 373.839C266.729 373.84 266.727 373.84 266.725 373.841C266.719 373.832 266.632 373.642 264.869 369.742L262.699 365.8H262.7C262.701 365.799 262.703 365.798 262.705 365.797C262.71 365.794 262.718 365.789 262.727 365.784C262.747 365.773 262.776 365.757 262.814 365.736C262.892 365.694 263.007 365.63 263.158 365.547C263.46 365.38 263.904 365.134 264.472 364.819C265.609 364.189 267.244 363.282 269.229 362.173C273.202 359.954 278.578 356.931 284.194 353.713C289.815 350.492 295.657 347.086 300.57 344.1C300.899 343.899 301.223 343.701 301.541 343.506C306.244 340.308 311.089 336.804 315.897 333.018C328.902 322.781 341.48 310.615 350.325 297.043C359.153 283.498 364.123 268.783 362.396 253.239C356.746 202.388 331.515 162.942 321.284 149.463C319.782 147.483 320.169 144.661 322.148 143.158C324.128 141.656 326.95 142.042 328.453 144.021C330.715 147.001 333.658 151.163 336.952 156.37C341.879 135.281 343.5 103.22 341.011 73.9364C339.59 57.2252 336.854 41.7406 332.788 29.9696C330.754 24.0824 328.446 19.2979 325.929 15.787C323.403 12.264 320.875 10.3068 318.469 9.51846C314.496 8.21707 308.594 9.3222 300.777 13.4911C293.162 17.5529 284.664 24.0236 276.048 31.744C258.843 47.1604 241.829 66.9587 231.437 80.4843C230.367 81.8767 228.584 82.5199 226.872 82.1308C223.02 81.2553 216.346 80.8674 208.731 80.9296C201.228 80.9909 193.213 81.4826 186.885 82.2128C186.54 82.2525 186.2 82.2495 185.869 82.2128C185.539 82.2494 185.199 82.2525 184.854 82.2128C178.526 81.4826 170.511 80.9909 163.008 80.9296C155.394 80.8674 148.719 81.2553 144.867 82.1308C143.155 82.5199 141.372 81.8765 140.302 80.4843C129.91 66.9588 112.896 47.1604 95.6913 31.744C87.0753 24.0238 78.577 17.5529 70.9618 13.4911C63.1457 9.3223 57.2431 8.21728 53.2704 9.51846C50.8642 10.3067 48.3365 12.2639 45.8104 15.787C43.2932 19.2979 40.9848 24.0822 38.9511 29.9696C34.8849 41.7406 32.1493 57.2251 30.7284 73.9364C28.2386 103.22 29.8577 135.281 34.7851 156.37C38.0791 151.163 41.023 147.001 43.2851 144.021C44.7877 142.042 47.6102 141.656 49.5897 143.158C51.5691 144.661 51.9564 147.483 50.454 149.463C40.2232 162.942 14.9918 202.388 9.34169 253.239C7.61465 268.783 12.5853 283.498 21.413 297.043C30.2583 310.615 42.8358 322.781 55.8407 333.018C60.6493 336.804 65.4941 340.308 70.1972 343.506C70.5154 343.701 70.8387 343.899 71.1679 344.1C76.0809 347.086 81.923 350.492 87.5438 353.713C93.1604 356.931 98.5361 359.954 102.509 362.173C104.494 363.282 106.129 364.189 107.266 364.819C107.835 365.134 108.278 365.38 108.58 365.547C108.731 365.63 108.846 365.694 108.924 365.736C108.962 365.757 108.991 365.773 109.011 365.784C109.02 365.789 109.028 365.794 109.033 365.797C109.035 365.798 109.037 365.799 109.038 365.8H109.039L106.869 369.742C105.099 373.657 105.018 373.833 105.013 373.841C105.012 373.84 105.009 373.84 105.007 373.839C105.002 373.837 104.995 373.834 104.987 373.83C104.971 373.823 104.948 373.812 104.919 373.799C104.86 373.772 104.775 373.733 104.666 373.683C104.447 373.581 104.127 373.432 103.715 373.236C102.889 372.845 101.689 372.267 100.171 371.511C97.1348 369.997 92.821 367.765 87.6747 364.877C81.2493 361.271 73.5022 356.628 65.3104 351.067C63.712 350.088 62.1943 349.139 60.8104 348.25L51.2626 391.219C50.7233 393.644 48.3193 395.174 45.8934 394.635C43.4674 394.096 41.9374 391.692 42.4765 389.266L52.9433 342.162C52.0532 341.481 51.1626 340.791 50.2733 340.091C36.8409 329.516 23.4495 316.651 13.8729 301.957C4.27885 287.236 -1.62647 270.451 0.396379 252.245C4.29539 217.154 17.0826 187.354 28.412 167.089C21.2826 145.161 18.8875 106.966 21.7606 73.1737C23.2147 56.073 26.0418 39.7756 30.4442 27.0312C32.6448 20.6609 35.2984 15.0027 38.496 10.5429C41.6845 6.09584 45.6251 2.55243 50.4686 0.965728C58.0959 -1.53265 66.87 1.10833 75.1972 5.54971C83.7252 10.0983 92.8398 17.1035 101.698 25.0409C118.532 40.1247 135.043 59.1258 145.751 72.8251C150.521 72.1151 156.765 71.879 163.082 71.9306C170.872 71.9943 179.2 72.5017 185.869 73.2704C192.538 72.5016 200.867 71.9942 208.657 71.9306C214.974 71.879 221.218 72.115 225.988 72.8251C236.696 59.1257 253.207 40.1247 270.041 25.0409C278.899 17.1034 288.014 10.0983 296.542 5.54971ZM109.04 365.8C111.157 366.965 111.975 369.595 110.893 371.756C109.812 373.917 107.217 374.838 105.016 373.843L106.869 369.742L109.04 365.8ZM264.869 369.742L266.723 373.843C264.521 374.838 261.926 373.917 260.845 371.756C259.763 369.595 260.582 366.965 262.698 365.8L264.869 369.742Z" fill="#1A1A18"/>
<path d="M287.405 53.0243C285.351 51.6243 282.552 52.1537 281.152 54.2069L258.652 87.2069C257.299 89.1908 257.742 91.8874 259.658 93.3339L286.158 113.334C288.142 114.831 290.964 114.437 292.461 112.453C293.958 110.469 293.564 107.647 291.58 106.15L272.949 92.0878L293.807 87.6434C296.237 87.1254 297.788 84.7351 297.271 82.3046C296.753 79.874 294.362 78.323 291.932 78.8407L272.412 82.9999L288.587 59.2772C289.987 57.2239 289.458 54.4244 287.405 53.0243Z" fill="#1A1A18"/>
<ellipse cx="125.869" cy="204.742" rx="22.5" ry="22" fill="#1A1A18"/>
<path d="M121.701 146.65C127.236 140.109 137.115 139.525 143.382 145.368L159.057 159.985C164.609 165.161 165.281 173.723 160.606 179.702C155.777 185.879 146.938 187.152 140.562 182.591L123.103 170.101C115.975 165.001 114.718 154.903 120.38 148.212L121.701 146.65Z" fill="white"/>
<circle cx="131.869" cy="210.242" r="5.5" fill="white"/>
<ellipse cx="22.5" cy="22" rx="22.5" ry="22" transform="matrix(-1 0 0 1 269.684 182.742)" fill="#1A1A18"/>
<path d="M251.352 146.65C245.817 140.109 235.938 139.525 229.671 145.368L213.996 159.985C208.445 165.161 207.772 173.723 212.447 179.702C217.276 185.879 226.115 187.152 232.491 182.591L249.95 170.101C257.078 165.001 258.335 154.903 252.674 148.212L251.352 146.65Z" fill="white"/>
<circle cx="5.5" cy="5.5" r="5.5" transform="matrix(-1 0 0 1 247.369 204.742)" fill="white"/>
<path d="M186.601 271.248C187.905 271.314 189.063 271.935 189.842 272.88C189.934 272.991 190.02 273.107 190.101 273.226C190.465 273.765 190.715 274.386 190.818 275.057C190.84 275.206 190.856 275.357 190.864 275.511C190.867 275.587 190.869 275.664 190.869 275.742V294.112C194.581 300.676 205.822 312.742 224.369 312.742C233.868 312.742 240.114 309.133 244.187 304.789C248.381 300.315 250.383 294.924 250.926 291.531C251.319 289.077 253.626 287.406 256.08 287.799C258.534 288.191 260.205 290.499 259.813 292.953C259.022 297.894 256.324 305.003 250.752 310.945C245.058 317.018 236.47 321.742 224.369 321.742C205.658 321.742 192.969 311.769 186.368 303.437C179.768 311.769 167.08 321.742 148.369 321.742C136.269 321.742 127.681 317.018 121.987 310.945C116.415 305.003 113.717 297.894 112.926 292.953C112.533 290.499 114.204 288.191 116.659 287.799C119.113 287.406 121.42 289.077 121.813 291.531C122.356 294.924 124.357 300.315 128.552 304.789C132.625 309.133 138.871 312.742 148.369 312.742C166.917 312.742 178.158 300.675 181.869 294.112V275.742C181.869 275.587 181.877 275.433 181.892 275.282C181.976 274.45 182.288 273.685 182.763 273.05C182.849 272.934 182.942 272.823 183.038 272.717C183.377 272.344 183.778 272.028 184.224 271.785C184.351 271.716 184.483 271.653 184.617 271.596C184.887 271.482 185.169 271.394 185.462 271.334C185.609 271.304 185.758 271.281 185.909 271.266C185.985 271.258 186.061 271.252 186.138 271.248C186.215 271.244 186.292 271.242 186.369 271.242L186.601 271.248Z" fill="#1A1A18"/>
<path d="M198.577 232.742C204.925 232.742 211.014 235.265 215.503 239.754L216.789 241.039C223.692 247.942 225.098 258.621 220.216 267.076C217.803 271.255 214.058 274.505 209.581 276.305L188.842 284.64L188.992 287.242L185.68 285.911L182.37 287.242L182.518 284.64L161.781 276.305C157.303 274.505 153.558 271.255 151.145 267.076C146.264 258.621 147.67 247.942 154.573 241.039L155.858 239.754C160.347 235.265 166.436 232.742 172.785 232.742H198.577Z" fill="#1A1A18"/>
<rect x="167.501" y="241.742" width="36" height="9" rx="4.5" fill="white"/>
</svg>
